Coordinates
version=1
nRows=13
nColumns=36
inDegrees=yes

Units are S.I. units (second, meters, Newtons, ...)
If the header above contains a line with 'inDegrees', this indicates whether rotational values are in degrees (yes) or radians (no).

endheader
time	pelvis_tilt	pelvis_list	pelvis_rotation	pelvis_tx	pelvis_ty	pelvis_tz	hip_flexion_r	hip_adduction_r	hip_rotation_r	knee_angle_r	knee_angle_r_beta	ankle_angle_r	subtalar_angle_r	mtp_angle_r	hip_flexion_l	hip_adduction_l	hip_rotation_l	knee_angle_l	knee_angle_l_beta	ankle_angle_l	subtalar_angle_l	mtp_angle_l	lumbar_extension	lumbar_bending	lumbar_rotation	arm_flex_r	arm_add_r	arm_rot_r	elbow_flex_r	pro_sup_r	arm_flex_l	arm_add_l	arm_rot_l	elbow_flex_l	pro_sup_l
      3.51666670	     -8.15829527	      9.74994289	     14.49572692	     -0.03412610	      1.16797646	      0.10844774	     16.91418599	     -7.72716953	     13.72155912	     34.98798337	      0.61065551	     23.86218840	    -21.17216793	     -7.49999987	     25.09470136	     12.65876953	     15.67471832	     32.23412230	      0.56259157	     -7.86733916	    -34.64935982	     -7.49999987	    -37.09187010	    -12.70419104	     -0.98030389	     -5.84073259	     -9.10988440	     11.29481268	     41.65867895	     65.18276999	     14.20823893	    -19.95129381	     80.63502657	     20.65383794	     36.26092565
      3.53333330	     -7.87534485	      9.62941356	     14.52522344	     -0.03052426	      1.16172245	      0.10602287	     16.99113953	     -7.46111918	     13.95175148	     36.19634173	      0.63174534	     24.60670816	    -21.44145561	     -7.49999987	     24.91516409	     12.73328373	     15.61922761	     33.39592323	      0.58286882	     -6.96749430	    -34.66008397	     -7.49999987	    -38.91749572	    -12.40661644	     -1.26146813	     -4.07235322	     -8.50312106	     11.47077792	     41.54649784	     65.21323047	     15.54565404	    -19.17830409	     80.67717471	     20.34081568	     36.26294464
      3.55000000	     -7.04762807	      9.41371754	     14.69130674	     -0.02281653	      1.16552550	      0.10171801	     15.79366813	     -7.26748028	     13.38855213	     36.35142310	      0.63445202	     25.45858202	    -20.64015605	     -7.49999987	     23.53997260	     12.68734198	     16.25874187	     33.67935760	      0.58781568	     -6.55595757	    -34.66632078	     -7.49999987	    -40.93477103	    -11.74908828	     -1.42810473	     -1.69030218	     -8.11142232	     12.80317105	     39.92805924	     65.38041862	     17.71453473	    -17.65416811	     82.15041917	     18.29205549	     36.45945429
      3.56666670	     -6.52115635	      9.27156239	     14.54156833	     -0.02339863	      1.17020860	      0.09965346	     15.33283884	     -7.13198953	     13.28823207	     36.68594861	      0.64029059	     25.32841252	    -21.11085805	     -7.49999987	     22.46181656	     12.63816833	     16.55960732	     33.49360174	      0.58457363	     -6.23604485	    -34.67354012	     -7.49999987	    -42.66888666	    -11.42151285	     -0.86902264	      0.27992974	     -7.94198219	     13.64870747	     39.41662301	     64.39738221	     21.81752818	    -16.42942646	     91.02620965	     17.80477654	     32.10362259
      3.58333330	     -5.46709807	      9.01540040	     14.52709690	     -0.01452071	      1.16351178	      0.09635385	     13.93098778	     -6.72879181	     12.73418920	     37.38957901	      0.65257126	     25.48487462	    -21.42404099	     -7.49999987	     20.85705049	     12.43581842	     17.28682327	     33.61216830	      0.58664301	     -5.86697945	    -34.68024020	     -7.49999987	    -44.51548564	    -10.74215146	     -0.77302821	      2.19491551	     -7.69029789	     13.67665596	     39.08538070	     64.18596015	     24.66657669	    -15.43983895	     91.12154481	     17.55580531	     34.41870409
      3.60000000	     -4.58890460	      9.16579732	     14.45664622	     -0.00733890	      1.15933231	      0.09348784	     12.94380671	     -6.83448155	     12.41117935	     38.22018687	      0.66706810	     26.29863430	    -21.69641321	     -7.49999987	     19.59580968	     12.58661187	     17.47004721	     34.15044583	      0.59603772	     -4.91342701	    -34.68934918	     -7.49999987	    -45.92927722	    -10.76645833	     -0.59111227	      3.92457834	     -7.63478672	     13.86144044	     39.09767743	     64.39943833	     27.69790830	    -14.57621625	     91.38195180	     17.28841681	     34.42325129
      3.61666670	     -3.46540605	      9.21029177	     14.76051255	     -0.00081139	      1.15812096	      0.08974114	     11.50330638	     -6.89494732	     11.50438552	     39.26265804	      0.68526266	     26.49776400	    -22.23494298	     -7.49999987	     18.12197920	     12.73117126	     18.11705713	     34.94135184	      0.60984163	     -4.40126415	    -34.68828385	     -7.49999987	    -47.11544719	    -10.51135855	     -0.61927542	      5.28857765	     -7.62553231	     13.87313893	     39.46081097	     64.66325382	     30.84687953	    -13.77233896	     91.85613442	     17.16834454	     34.52905320
      3.63333330	     -2.29154954	      9.69207569	     15.03458348	      0.01055628	      1.15036959	      0.08636805	     10.22028997	     -7.31737920	     10.69003692	     41.05275214	      0.71650569	     27.16605444	    -22.81505936	     -7.49999987	     16.45999504	     13.20543276	     18.43208367	     35.83302867	      0.62540433	     -3.06679078	    -34.69085251	     -7.49999987	    -48.29719640	    -10.83195560	     -0.09947036	      5.18676875	     -7.38167411	     10.98149095	     41.56426329	     67.20209982	     35.02303876	    -12.66491901	     97.73873406	     16.84781686	     35.82588688
      3.65000000	     -1.19220627	     10.25687670	     15.47732617	      0.02042349	      1.14167442	      0.08267593	      9.27896387	     -7.82882426	      9.55477897	     43.99221365	      0.76780897	     28.46934371	    -22.73570631	     -7.49999987	     14.94523147	     13.80947783	     18.79696025	     37.04319525	      0.64652572	     -1.57231222	    -34.69527723	     -7.49999987	    -48.88404753	    -11.12827332	     -0.57219498	      5.05407732	     -6.84814115	      8.52473749	     43.31989995	     72.83383047	     38.14418889	    -12.32221518	    101.31094166	     17.60527576	     30.49700993
      3.66666670	     -0.61116097	     10.64011019	     15.86050800	      0.03095185	      1.13674983	      0.07945580	      9.08827079	     -8.21585101	      8.55439038	     47.63052538	      0.83130949	     29.48097712	    -22.74493025	     -7.49999987	     13.92986297	     14.33417233	     19.16002590	     38.37753764	      0.66981439	     -0.06629503	    -34.69157944	     -7.49999987	    -48.61106511	    -11.45705742	     -1.39726916	      5.07944060	     -6.56366026	      8.39261737	     44.45482437	     72.41475774	     40.21803802	    -12.25864123	    100.78289984	     17.90789998	     31.24448681
      3.68333330	     -0.04585860	     11.42874072	     16.12235309	      0.03564143	      1.13327301	      0.07960478	      9.63914970	     -9.30464417	      7.19065498	     52.38670612	      0.91432051	     31.90654102	    -19.95523924	     -7.49999987	     12.48743247	     14.96456944	     19.29487863	     39.12763128	      0.68290599	      1.00662850	    -34.69213823	     -7.49999987	    -48.61978053	    -12.32200544	     -1.72254589	      3.51469615	     -5.87404395	      4.65415036	     48.98272804	     76.01481001	     43.01007194	    -11.93629833	     99.41780013	     18.84091761	     34.65733386
      3.70000000	      0.16735618	     12.01994623	     16.46209848	      0.04740493	      1.13216549	      0.07732397	     10.63883660	    -10.31971128	      6.05127480	     57.04035747	      0.99554204	     32.91450149	    -17.86846654	     -7.49999987	     10.94403522	     15.36097817	     19.78868578	     38.65413793	      0.67464198	      1.33374483	    -34.68923844	     -7.49999987	    -47.79857249	    -13.14721659	     -2.41303549	      2.22973500	     -5.21806222	      2.51199770	     52.60799606	     78.30078243	     45.20904017	    -11.93224844	     96.35682445	     20.19637126	     35.20757112
      3.71666670	      0.48772140	     12.47234730	     16.79335606	      0.06259828	      1.13552090	      0.07330095	     11.33907937	    -11.50038553	      4.56939276	     61.30211554	      1.06992375	     32.47932629	    -15.65702391	     -7.49999987	      8.60967526	     15.43051436	     20.61817758	     37.27658554	      0.65059915	      1.20448992	    -34.68555598	     -7.49999987	    -46.65128126	    -13.69932940	     -3.08638705	      0.54235071	     -4.73281864	      1.82522861	     55.98774855	     76.55668285	     46.64562141	    -12.18902385	     92.84955636	     22.02348148	     38.26067143
